# AST/ASF file generated using VICON BodyLanguage
# -----------------------------------------------
:version 1.10
:name VICON
:units
  mass 1.0
  length 0.45
  angle deg
:documentation
   .ast/.asf automatically generated from VICON data using
   VICON BodyBuilder and BodyLanguage model FoxedUp or BRILLIANT.MOD
:root
   order TX TY TZ RX RY RZ
   axis XYZ
   position 0 0 0  
   orientation 0 0 0 
:bonedata
  begin
     id 1 
     name lhipjoint
     direction 0.710188 -0.616876 0.339259 
     length 2.5669 
     axis 0 0 0  XYZ
  end
  begin
     id 2 
     name lfemur
     direction 0.34202 -0.939693 0  
     length 7.12796  
     axis 0 0 20  XYZ
    dof rx ry rz
    limits (-160.0 20.0)
           (-70.0 70.0)
           (-60.0 70.0)
  end
  begin
     id 3 
     name ltibia
     direction 0.34202 -0.939693 0   
     length 7.58108   
     axis 0 0 20   XYZ
    dof rx
    limits (-10.0 170.0)
  end
  begin
     id 4 
     name lfoot
     direction 0.0669471 -0.183936 0.980656   
     length 2.17365   
     axis -90 7.62852e-016 20   XYZ
    dof rx rz
    limits (-45.0 90.0)
           (-70.0 20.0)
  end
  begin
     id 5 
     name ltoes
     direction 1.53508e-011 -4.21705e-011 1   
     length 1.09427   
     axis -90 7.62852e-016 20   XYZ
    dof rx
    limits (-90.0 20.0)
  end
  begin
     id 6 
     name rhipjoint
     direction -0.700191 -0.625589 0.34405   
     length 2.53115  
     axis 0 0 0  XYZ 
  end
  begin
     id 7 
     name rfemur
     direction -0.34202 -0.939693 0   
     length 7.33006   
     axis 0 0 -20   XYZ
    dof rx ry rz
    limits (-160.0 20.0)
           (-70.0 70.0)
           (-70.0 60.0)
  end
  begin
     id 8 
     name rtibia
     direction -0.34202 -0.939693 0   
     length 7.64926   
     axis 0 0 -20   XYZ
    dof rx
    limits (-10.0 170.0)
 end
 begin
     id 9 
     name rfoot
     direction -0.0688927 -0.189281 0.979503   
     length 2.20493  
     axis -90 -7.62852e-016 -20   XYZ
    dof rx rz
    limits (-45.0 90.0)
           (-20.0 70.0)
  end
  begin
     id 10 
     name rtoes
     direction -1.53567e-011 -4.21933e-011 1   
     length 1.10919   
     axis -90 -7.62852e-016 -20   XYZ
    dof rx
    limits (-90.0 20.0)
  end
  begin
     id 11 
     name lowerback
     direction -0.0167868 0.989873 -0.140959   
     length 2.14596   
     axis 0 0 0   XYZ
    dof rx ry rz
    limits (-20.0 45.0)
           (-30.0 30.0)
           (-30.0 30.0)
  end
  begin
     id 12 
     name upperback
     direction 0.0129109 0.998033 0.0613525   
     length 2.10457   
     axis 0 0 0   XYZ
    dof rx ry rz
    limits (-20.0 45.0)
           (-30.0 30.0)
           (-30.0 30.0)
  end
  begin
     id 13 
     name thorax
     direction 0.0177047 0.991119 0.131797   
     length 2.17652   
     axis 0 0 0   XYZ
    dof rx ry rz
    limits (-20.0 45.0)
           (-30.0 30.0)
           (-30.0 30.0)
  end
  begin
     id 14 
     name lowerneck
     direction -0.0336893 0.997548 0.0613464   
     length 1.8912   
     axis 0 0 0   XYZ
    dof rx ry rz
    limits (-20.0 45.0)
           (-30.0 30.0)
           (-30.0 30.0)
  end
  begin
     id 15 
     name upperneck
     direction 0.0435909 0.997179 -0.0611028   
     length 1.8829   
     axis 0 0 0   XYZ
    dof rx ry rz
    limits (-20.0 45.0)
           (-30.0 30.0)
           (-30.0 30.0)
  end
  begin
     id 16
     name head
     direction 0.0175076 0.999444 -0.0283782  
     length 1.93197  
     axis 0 0 0   XYZ
    dof rx ry rz
    limits (-20.0 45.0)
           (-30.0 30.0)
           (-30.0 30.0)
  end
  begin
     id 17 
     name lclavicle
     direction 0.919164 0.389875 0.0559876  
     length 3.60004  
     axis 0 0 0   XYZ
    dof ry rz
    limits (-20.0 10.0)
           (0.0 20.0)
  end
  begin
     id 18 
     name lhumerus
     direction 1 -4.48958e-011 6.89191e-027   
     length 5.43301   
     axis 180 -30 -90   XYZ
    dof rx ry rz
    limits (-60.0 90.0)
           (-90.0 90.0)
           (-90.0 90.0)
  end
  begin
     id 19
     name lradius
     direction 1 -4.4897e-011 3.24727e-027   
     length 3.15936   
     axis 180 -30 -90   XYZ
    dof rx
    limits (-10.0 170.0)
  end
  begin
     id 20
     name lwrist
     direction 1 -4.4897e-011 9.00228e-027   
     length 1.57968   
     axis -6.29373e-015 90 90   XYZ
    dof ry
    limits (-180.0 0.0)
 end
  begin
     id 21 
     name lhand
     direction 1 -4.48968e-011 1.80042e-026   
     length 0.712827   
     axis -1.14882e-014 90 90   XYZ
    dof rx rz
    limits (-90.0 90.0)
           (-45.0 45.0)
  end
  begin
     id 22 
     name lfingers
     direction 1 -4.49019e-011 3.60267e-026   
     length 0.574699   
     axis -2.29769e-014 90 90   XYZ
    dof rx
    limits (0.0 90.0)
  end
  begin
     id 23
     name lthumb
     direction 0.707107 -6.3498e-011 0.707107   
     length 0.825157   
     axis -90 45 5.37419e-014   XYZ
    dof rx rz
    limits (-45.0 45.0)
           (-45.0 45.0)
  end
  begin
     id 24 
     name rclavicle
     direction -0.890334 0.455305 -0.00132111   
     length 3.51494  
     axis 0 0 0   XYZ 
    dof ry rz
    limits (-10.0 20.0)
           (-20.0 0.0)
  end
  begin
     id 25 
     name rhumerus
     direction -1 -4.48967e-011 5.07175e-028  
     length 5.34194   
     axis 180 30 90   XYZ
    dof rx ry rz
    limits (-90.0 60.0)
           (-90.0 90.0)
           (-90.0 90.0)
  end
  begin
     id 26 
     name rradius
     direction -1 -4.48955e-011 3.30467e-027   
     length 3.19351   
     axis 180 30 90   XYZ
    dof rx
    limits (-10.0 170.0)
  end
  begin
     id 27 
     name rwrist
     direction -1 -4.48968e-011 9.00208e-027   
     length 1.59676   
     axis -6.29373e-015 -90 -90   XYZ
    dof ry
    limits (-180.0 0.0)
  end
  begin
     id 28
     name rhand
     direction -1 -4.49e-011 1.80099e-026   
     length 0.743862   
     axis -1.14882e-014 -90 -90   XYZ
    dof rx rz
    limits (-90.0 90.0)
           (-45.0 45.0)
  end
  begin
     id 29
     name rfingers
     direction -1 -4.49009e-011 3.6023e-026   
     length 0.599721   
     axis -2.29769e-014 -90 -90   XYZ
    dof rx
    limits (0.0 90.0)
  end
  begin
     id 30
     name rthumb
     direction -0.707107 -6.35025e-011 0.707107   
     length 0.861083   
     axis -90 -45 -5.37419e-014   XYZ
    dof rx rz
    limits (-45.0 45.0)
           (-45.0 45.0)
  end
:hierarchy
  begin
    root lhipjoint rhipjoint lowerback
    lhipjoint lfemur
    lfemur ltibia
    ltibia lfoot
    lfoot ltoes
    rhipjoint rfemur
    rfemur rtibia
    rtibia rfoot
    rfoot rtoes
    lowerback upperback
    upperback thorax
    thorax lowerneck lclavicle rclavicle
    lowerneck upperneck
    upperneck head
    lclavicle lhumerus
    lhumerus lradius
    lradius lwrist
    lwrist lhand lthumb
    lhand lfingers
    rclavicle rhumerus
    rhumerus rradius
    rradius rwrist
    rwrist rhand rthumb
    rhand rfingers
  end

#!OML:ASF H:\Martial Arts Walks\Project 1\Capture day 1\Session 1\male.ASF
:FULLY-SPECIFIED
:DEGREES
918
root -7.58896 15.8319 21.2373 -87.7149 66.9598 -89.8677
lowerback 38.9513 0.169771 -8.44925
upperback 6.13381 -1.43721 6.92074
thorax -12.0141 -0.0456258 12.7832
lowerneck 3.08591 -11.9827 -14.1086
upperneck 2.50547 -17.4796 24.6302
head 3.77147 -8.74944 9.16288
rclavicle 2.8625e-014 8.90555e-014
rhumerus -37.7503 -18.6828 -41.1777
rradius 86.2231
rwrist -27.5596
rhand -19.104 -41.9278
rfingers 7.12502
rthumb 7.20474 -71.7851
lclavicle 2.8625e-014 8.90555e-014
lhumerus 12.4886 -55.4832 74.8238
lradius 114.392
lwrist 28.107
lhand 8.05491 -0.380031
lfingers 7.12502
lthumb 33.2792 26.5608
rfemur -108.158 -25.3237 37.3693
rtibia 127.993
rfoot -20.9448 0.72868
rtoes -24.3134
lfemur -39.6799 29.7968 1.52294
ltibia 66.5549
lfoot -18.4931 26.223
ltoes -2.70611
919
root -7.57163 15.7224 21.3485 -87.8875 67.1548 -90.3402
lowerback 38.2838 -0.0196297 -8.03229
upperback 6.093 -1.43949 7.13659
thorax -11.9748 -0.0548132 12.8008
lowerneck 3.28846 -12.1395 -14.1054
upperneck 2.16718 -17.6469 24.532
head 3.66264 -8.85958 9.12563
rclavicle 3.02153e-014 -1.43125e-014
rhumerus -37.331 -18.4187 -41.2938
rradius 87.5303
rwrist -27.6602
rhand -19.1333 -42.0689
rfingers 7.12502
rthumb 7.17644 -71.9273
lclavicle 3.02153e-014 -1.43125e-014
lhumerus 11.0801 -55.1526 75.552
lradius 114.182
lwrist 27.1854
lhand 7.78452 -0.367297
lfingers 7.12502
lthumb 33.0221 26.6282
rfemur -105.614 -25.7492 35.5282
rtibia 126.09
rfoot -21.0802 -0.0674887
rtoes -23.9793
lfemur -40.8674 30.6902 1.53023
ltibia 67.871
lfoot -18.8012 25.6734
ltoes -2.72291
920
root -7.5573 15.6143 21.4588 -88.4488 67.447 -91.1743
lowerback 37.8076 -0.241471 -7.55835
upperback 5.93275 -1.48977 7.29512
thorax -11.9984 -0.0831634 12.7431
lowerneck 3.44636 -12.3193 -14.1648
upperneck 1.89266 -17.8634 24.5297
head 3.60605 -8.98782 9.12068
rclavicle -7.95139e-015 2.22639e-014
rhumerus -36.963 -18.0841 -41.344
rradius 88.72
rwrist -27.6845
rhand -19.0975 -42.2196
rfingers 7.12502
rthumb 7.21106 -72.0767
lclavicle -7.95139e-015 2.22639e-014
lhumerus 9.82663 -54.9323 76.1639
lradius 113.886
lwrist 26.2277
lhand 7.58768 -0.564406
lfingers 7.12502
lthumb 32.8349 26.4705
rfemur -102.959 -26.3262 33.3674
rtibia 124.125
rfoot -20.9812 -0.184768
rtoes -23.2295
lfemur -41.9596 31.1638 1.42489
ltibia 69.0306
lfoot -19.1473 25.269
ltoes -3.41036
921
root -7.54683 15.5039 21.5753 -88.8815 67.8206 -91.838
lowerback 37.3731 -0.388265 -7.23774
upperback 5.76151 -1.52031 7.41496
thorax -12.0451 -0.0969562 12.7181
lowerneck 3.60443 -12.5165 -14.2427
upperneck 1.6546 -18.1136 24.5517
head 3.57131 -9.13113 9.12218
rclavicle 7.15625e-015 -1.59028e-015
rhumerus -36.6434 -17.5955 -41.4488
rradius 89.8959
rwrist -27.8986
rhand -19.2918 -42.4261
rfingers 7.12502
rthumb 7.02352 -72.2896
lclavicle 7.15625e-015 -1.59028e-015
lhumerus 8.57781 -54.7715 76.7133
lradius 113.635
lwrist 25.3559
lhand 6.8218 -0.447293
lfingers 7.12502
lthumb 32.1061 26.7373
rfemur -100.276 -26.6218 31.0274
rtibia 122.086
rfoot -20.3945 0.134047
rtoes -21.6731
lfemur -42.9044 31.5524 1.2692
ltibia 70.0534
lfoot -19.6337 25.0493
ltoes -3.70438
922
root -7.53349 15.3941 21.7029 -89.3238 68.3884 -92.502
lowerback 36.9015 -0.455319 -7.24147
upperback 5.60433 -1.58959 7.4851
thorax -12.0377 -0.123305 12.8316
lowerneck 3.62085 -12.6992 -14.2617
upperneck 1.55057 -18.3473 24.5021
head 3.58278 -9.2507 9.08043
rclavicle 1.82882e-014 -2.38542e-014
rhumerus -36.3899 -17.2035 -41.7007
rradius 91.1272
rwrist -27.9959
rhand -19.3057 -42.5641
rfingers 7.12502
rthumb 7.01009 -72.428
lclavicle 1.82882e-014 -2.38542e-014
lhumerus 7.31205 -54.6377 77.1519
lradius 113.419
lwrist 24.6764
lhand 6.16612 -0.300942
lfingers 7.12502
lthumb 31.4816 27.0076
rfemur -97.6293 -26.8197 28.4788
rtibia 120.06
rfoot -19.5048 0.565148
rtoes -20.142
lfemur -43.7321 32.0061 0.933389
ltibia 70.9416
lfoot -20.0946 25.0251
ltoes -3.90985
923
root -7.52177 15.289 21.8368 -89.7564 68.9958 -93.1054
lowerback 36.3869 -0.352368 -7.50886
upperback 5.51689 -1.52174 7.66108
thorax -11.9614 -0.080844 13.1544
lowerneck 3.7382 -12.925 -14.3638
upperneck 1.28061 -18.6282 24.4825
head 3.55018 -9.40835 9.06462
rclavicle -3.4191e-014 1.09729e-013
rhumerus -36.1714 -16.8859 -41.8195
rradius 92.332
rwrist -28.1477
rhand -19.499 -42.6229
rfingers 7.12502
rthumb 6.82347 -72.4929
lclavicle -3.4191e-014 1.09729e-013
lhumerus 6.27051 -54.5732 77.6889
lradius 113.191
lwrist 24.309
lhand 5.45723 -0.290054
lfingers 7.12502
lthumb 30.806 27.1482
rfemur -94.8091 -26.8337 25.7673
rtibia 117.9
rfoot -18.3259 1.45921
rtoes -17.7699
lfemur -44.4529 32.424 0.566107
ltibia 71.7672
lfoot -20.1793 25.1528
ltoes -4.38768
924
root -7.51236 15.1934 21.9749 -90.292 69.6622 -93.8009
lowerback 35.9991 -0.337111 -7.70517
upperback 5.363 -1.57813 7.64221
thorax -11.9703 -0.0952715 13.2694
lowerneck 3.83021 -13.1176 -14.3011
upperneck 1.08843 -18.8667 24.4831
head 3.52139 -9.53813 9.03344
rclavicle 1.03368e-014 -2.38542e-014
rhumerus -35.9979 -16.579 -42.2737
rradius 93.5045
rwrist -28.2978
rhand -19.6505 -42.6143
rfingers 7.12502
rthumb 6.67718 -72.489
lclavicle 1.03368e-014 -2.38542e-014
lhumerus 5.0958 -54.5307 78.0753
lradius 113.028
lwrist 24.4275
lhand 5.09371 -0.24591
lfingers 7.12502
lthumb 30.4594 27.2572
rfemur -91.9072 -26.7433 23.1117
rtibia 115.561
rfoot -16.8516 1.95281
rtoes -15.8782
lfemur -45.3029 32.8493 0.122997
ltibia 72.6569
lfoot -20.1823 24.9303
ltoes -4.88955
925
root -7.50027 15.1023 22.1243 -90.9848 70.2413 -94.5121
lowerback 35.7413 -0.292576 -7.91998
upperback 5.25044 -1.59577 7.67
thorax -11.9907 -0.0894643 13.434
lowerneck 3.96311 -13.2779 -14.5156
upperneck 0.883021 -19.0861 24.6296
head 3.52272 -9.66387 9.09723
rclavicle -1.13705e-013 1.44715e-013
rhumerus -35.7983 -16.2319 -42.8119
rradius 94.6452
rwrist -28.0399
rhand -19.893 -42.3931
rfingers 7.12502
rthumb 6.44308 -72.2751
lclavicle -1.13705e-013 1.44715e-013
lhumerus 3.94173 -54.5021 78.3934
lradius 112.983
lwrist 24.9864
lhand 4.81852 -0.0874718
lfingers 7.12502
lthumb 30.1969 27.464
rfemur -88.7195 -26.403 20.4489
rtibia 113.056
rfoot -15.1655 2.75486
rtoes -13.1685
lfemur -46.0634 33.3668 -0.107941
ltibia 73.5393
lfoot -20.009 24.5644
ltoes -5.39135
926
root -7.48868 15.0147 22.2699 -91.2201 70.8801 -94.8716
lowerback 35.3559 -0.124097 -8.13976
upperback 5.09488 -1.47201 7.59728
thorax -12.0447 -0.0175331 13.4247
lowerneck 4.23774 -13.5623 -14.3075
upperneck 0.543285 -19.4327 24.5959
head 3.42311 -9.86482 9.03647
rclavicle -3.4191e-014 4.29375e-014
rhumerus -35.9072 -16.1378 -43.1575
rradius 95.7569
rwrist -28.1716
rhand -19.8375 -42.2437
rfingers 7.12502
rthumb 6.49674 -72.1241
lclavicle -3.4191e-014 4.29375e-014
lhumerus 2.82338 -54.741 78.686
lradius 113.068
lwrist 25.8291
lhand 5.28005 0.416894
lfingers 7.12502
lthumb 30.6371 27.8869
rfemur -85.6619 -25.7529 17.7627
rtibia 110.284
rfoot -12.9677 3.63777
rtoes -10.0856
lfemur -46.8668 34.0105 -0.451778
ltibia 74.3662
lfoot -19.957 24.3127
ltoes -5.44027
927
root -7.4733 14.9308 22.4267 -91.539 71.4587 -95.3062
lowerback 35.0288 -0.11733 -8.16577
upperback 4.9132 -1.51438 7.35075
thorax -12.1054 -0.0336164 13.1726
lowerneck 4.43393 -13.7574 -14.1912
upperneck 0.379604 -19.6931 24.744
head 3.4005 -10.0111 9.05143
rclavicle 5.56597e-014 -1.74931e-014
rhumerus -35.9073 -15.9978 -43.9357
rradius 96.8379
rwrist -28.4854
rhand -19.7674 -42.6594
rfingers 7.12502
rthumb 6.56441 -72.5376
lclavicle 5.56597e-014 -1.74931e-014
lhumerus 1.52172 -54.894 78.7915
lradius 113.174
lwrist 26.7626
lhand 5.98101 0.605178
lfingers 7.12502
lthumb 31.3052 27.948
rfemur -82.6128 -25.0237 15.3028
rtibia 107.355
rfoot -10.5611 4.42005
rtoes -8.2677
lfemur -47.5247 34.6029 -0.607569
ltibia 75.0778
lfoot -19.6549 23.9069
ltoes -6.19557
